# 3ds Max Wavefront OBJ Exporter v0.97b - (c)2007 guruware
# File Created: 05.05.2014 12:56:29

mtllib ISELF_3rdfloorconc.mtl

#
# object 3rdFloor
#

v  2356.4414 371.6628 1018.5546
v  2327.0630 371.6628 1018.5546
v  2327.0630 407.6628 1018.5546
v  2356.4414 407.6628 1018.5546
v  2327.0630 371.6628 616.0737
v  2327.0630 407.6628 616.0737
v  2206.6128 371.6628 616.0737
v  2206.6128 407.6628 616.0737
v  2206.6128 371.6628 272.3492
v  2206.6128 407.6628 272.3492
v  855.2169 371.6628 272.3492
v  855.2169 407.6628 272.3492
v  855.2169 371.6628 339.9189
v  855.2169 407.6628 339.9189
v  529.1193 371.6628 339.9189
v  529.1193 407.6628 339.9189
v  529.1193 371.6628 231.2197
v  529.1193 407.6628 231.2197
v  308.7830 371.6628 201.8416
v  308.7830 407.6628 201.8416
v  326.4099 371.6628 16.7591
v  326.4099 407.6628 16.7591
v  9.1257 371.6628 16.7591
v  9.1257 407.6628 16.7591
v  9.1257 371.6628 1147.8186
v  9.1257 407.6628 1147.8186
v  197.1460 371.6628 1147.8186
v  197.1460 407.6628 1147.8186
v  182.4569 371.6628 1282.9581
v  182.4569 407.6628 1282.9581
v  558.4974 371.6628 1332.9010
v  558.4974 407.6628 1332.9010
v  558.4974 371.6628 1650.1853
v  558.4974 407.6628 1650.1853
v  514.4302 371.6628 1650.1853
v  514.4302 407.6628 1650.1853
v  514.4302 371.6628 1758.8845
v  514.4302 407.6628 1758.8845
v  561.4352 371.6628 1758.8845
v  561.4352 407.6628 1758.8845
v  561.4352 371.6628 1788.2626
v  561.4352 407.6628 1788.2626
v  2356.4414 371.6628 1788.2626
v  2356.4414 407.6628 1788.2626
v  2231.9805 371.6628 1060.0049
v  2231.9805 371.6628 1058.4229
v  2102.0164 371.6628 1116.6615
v  2102.0164 371.6628 1125.9575
v  2231.9805 371.6628 996.6431
v  235.2640 371.6628 1055.0914
v  229.8010 371.6628 1099.3418
v  2231.9805 407.6628 1060.0049
v  2231.9805 407.6628 1058.4229
v  263.7067 407.6628 778.2086
v  236.6029 407.6628 1044.2462
v  235.2640 407.6628 1055.0913
v  310.0986 371.6628 1055.1611
v  310.0985 407.6628 1055.1611
v  411.8862 407.6628 1065.8511
v  411.8862 371.6628 1065.8511
v  238.6693 407.6628 1044.0601
v  238.6693 371.6628 1044.0601
v  263.7067 371.6628 778.2086
v  411.0938 407.6628 779.7934
v  411.0938 371.6628 779.7934
v  348.6469 371.6628 779.1219
v  348.6469 407.6628 779.1219
v  403.4585 371.6628 645.7307
v  413.1099 371.6628 645.7307
v  236.6030 371.6628 1044.2462
v  303.9419 407.6628 1109.5447
v  413.1099 371.6628 622.2428
v  413.1099 371.6628 488.4143
v  403.4585 407.6628 645.7307
v  277.7958 407.6628 645.7307
v  277.7958 371.6628 645.7307
v  413.1099 407.6628 645.7307
v  413.1099 407.6628 488.4143
v  293.1974 407.6628 488.4143
v  293.1974 371.6628 488.4143
v  413.1099 407.6628 622.2428
v  229.8010 407.6628 1099.3418
v  303.9419 371.6628 1109.5447
v  2231.9805 407.6628 1125.9575
v  2102.0164 407.6628 1112.9170
v  2102.0161 407.6628 996.6431
v  2102.0164 371.6628 1112.9170
v  2102.0164 407.6628 1116.6615
v  2231.9805 371.6628 1125.9575
v  2102.0164 407.6628 1125.9575
v  2102.0161 371.6628 996.6431
v  2231.9805 407.6628 996.6431
v  551.4943 407.6628 440.8841
v  551.4943 407.6628 343.7780
v  696.1888 407.6628 343.7780
v  696.1888 407.6628 440.8841
v  696.1888 371.6628 343.7780
v  551.4943 371.6628 343.7780
v  551.4943 371.6628 440.8841
v  696.1888 371.6628 440.8841
# 100 vertices

vn 0.0000 0.0000 -1.0000
vn 1.0000 0.0000 -0.0000
vn -1.0000 0.0000 -0.0000
vn 0.1322 0.0000 -0.9912
vn 0.9955 0.0000 0.0948
vn 0.0000 0.0000 1.0000
vn -0.9941 0.0000 -0.1081
vn -0.1317 0.0000 0.9913
vn 0.0000 -1.0000 -0.0000
vn -0.0000 -1.0000 -0.0000
vn 0.0000 -1.0000 0.0000
vn -0.0000 -1.0000 0.0000
vn 0.0000 1.0000 -0.0000
vn 0.1044 0.0000 -0.9945
vn 0.9956 -0.0000 0.0938
vn 0.9956 0.0000 0.0938
vn -1.0000 0.0000 0.0028
vn -0.0108 0.0000 0.9999
vn 0.9952 0.0000 0.0974
vn 0.9925 0.0000 0.1225
vn 0.0897 -0.0000 0.9960
vn -0.9937 -0.0000 -0.1125
vn -0.9937 0.0000 -0.1125
vn 0.1363 0.0000 -0.9907
vn -0.0000 0.0000 1.0000
# 25 vertex normals

vt 0.9962 0.4406 0.0000
vt 0.9837 0.4406 0.0000
vt 0.9837 0.4406 1.0000
vt 0.9962 0.4406 1.0000
vt 0.9837 0.6121 0.0000
vt 0.9837 0.6121 1.0000
vt 0.9324 0.6121 0.0000
vt 0.9324 0.6121 1.0000
vt 0.9324 0.7585 0.0000
vt 0.9324 0.7585 1.0000
vt 0.3567 0.7585 0.0000
vt 0.3567 0.7585 1.0000
vt 0.3567 0.7297 0.0000
vt 0.3567 0.7297 1.0000
vt 0.2178 0.7297 0.0000
vt 0.2178 0.7297 1.0000
vt 0.2178 0.7760 0.0000
vt 0.2178 0.7760 1.0000
vt 0.1239 0.7885 0.0000
vt 0.1239 0.7885 1.0000
vt 0.1314 0.8674 0.0000
vt 0.1314 0.8674 1.0000
vt -0.0038 0.8674 0.0000
vt -0.0038 0.8674 1.0000
vt -0.0038 0.3855 0.0000
vt -0.0038 0.3855 1.0000
vt 0.0763 0.3855 0.0000
vt 0.0763 0.3855 1.0000
vt 0.0701 0.3280 0.0000
vt 0.0701 0.3280 1.0000
vt 0.2303 0.3067 0.0000
vt 0.2303 0.3067 1.0000
vt 0.2303 0.1715 0.0000
vt 0.2303 0.1715 1.0000
vt 0.2115 0.1715 0.0000
vt 0.2115 0.1715 1.0000
vt 0.2115 0.1252 0.0000
vt 0.2115 0.1252 1.0000
vt 0.2315 0.1252 0.0000
vt 0.2315 0.1252 1.0000
vt 0.2315 0.1127 0.0000
vt 0.2315 0.1127 1.0000
vt 0.9962 0.1127 0.0000
vt 0.9962 0.1127 1.0000
vt 0.9432 0.4229 0.0000
vt 0.9432 0.4236 0.0000
vt 0.8879 0.3988 0.0000
vt 0.8879 0.3948 0.0000
vt 0.9432 0.4499 0.0000
vt 0.0926 0.4250 0.0000
vt 0.0903 0.4062 0.0000
vt 0.9432 0.4229 1.0000
vt 0.9432 0.4236 1.0000
vt 0.1047 0.5430 1.0000
vt 0.0932 0.4297 1.0000
vt 0.0926 0.4250 1.0000
vt 0.1245 0.4250 0.0000
vt 0.1245 0.4250 1.0000
vt 0.1678 0.4204 1.0000
vt 0.1678 0.4204 0.0000
vt 0.0940 0.4297 1.0000
vt 0.0940 0.4297 0.0000
vt 0.1047 0.5430 0.0000
vt 0.1675 0.5423 1.0000
vt 0.1675 0.5423 0.0000
vt 0.1409 0.5426 0.0000
vt 0.1409 0.5426 1.0000
vt 0.1642 0.5994 0.0000
vt 0.1683 0.5994 0.0000
vt 0.0932 0.4297 0.0000
vt 0.1218 0.4018 1.0000
vt 0.1683 0.6094 0.0000
vt 0.1683 0.6664 0.0000
vt 0.1642 0.5994 1.0000
vt 0.1107 0.5994 1.0000
vt 0.1107 0.5994 0.0000
vt 0.1683 0.5994 1.0000
vt 0.1683 0.6664 1.0000
vt 0.1173 0.6664 1.0000
vt 0.1173 0.6664 0.0000
vt 0.1683 0.6094 1.0000
vt 0.0903 0.4062 1.0000
vt 0.1218 0.4018 0.0000
vt 0.9432 0.3948 1.0000
vt 0.8879 0.4004 1.0000
vt 0.8879 0.4499 1.0000
vt 0.8879 0.4004 0.0000
vt 0.8879 0.3988 1.0000
vt 0.9432 0.3948 0.0000
vt 0.8879 0.3948 1.0000
vt 0.8879 0.4499 0.0000
vt 0.9432 0.4499 1.0000
vt 0.2273 0.6867 1.0000
vt 0.2273 0.7281 1.0000
vt 0.2889 0.7281 1.0000
vt 0.2889 0.6867 1.0000
vt 0.2889 0.7281 0.0000
vt 0.2273 0.7281 0.0000
vt 0.2273 0.6867 0.0000
vt 0.2889 0.6867 0.0000
# 100 texture coords

g 3rdFloor
usemtl 3rdfkiirplan
s 1
f 1/1/1 2/2/1 3/3/1 4/4/1 
s 4
f 2/2/2 5/5/2 6/6/2 3/3/2 
s 2
f 5/5/1 7/7/1 8/8/1 6/6/1 
s 4
f 7/7/2 9/9/2 10/10/2 8/8/2 
s 2
f 9/9/1 11/11/1 12/12/1 10/10/1 
s 4
f 11/11/3 13/13/3 14/14/3 12/12/3 
s 2
f 13/13/1 15/15/1 16/16/1 14/14/1 
s 4
f 15/15/2 17/17/2 18/18/2 16/16/2 
s 2
f 17/17/4 19/19/4 20/20/4 18/18/4 
s 4
f 19/19/5 21/21/5 22/22/5 20/20/5 
s 2
f 21/21/1 23/23/1 24/24/1 22/22/1 
s 4
f 23/23/3 25/25/3 26/26/3 24/24/3 
s 2
f 25/25/6 27/27/6 28/28/6 26/26/6 
s 4
f 27/27/7 29/29/7 30/30/7 28/28/7 
s 2
f 29/29/8 31/31/8 32/32/8 30/30/8 
s 4
f 31/31/3 33/33/3 34/34/3 32/32/3 
s 2
f 33/33/1 35/35/1 36/36/1 34/34/1 
s 4
f 35/35/3 37/37/3 38/38/3 36/36/3 
s 2
f 37/37/6 39/39/6 40/40/6 38/38/6 
s 4
f 39/39/3 41/41/3 42/42/3 40/40/3 
s 2
f 41/41/6 43/43/6 44/44/6 42/42/6 
s 4
f 43/43/2 1/1/2 4/4/2 44/44/2 
s 16
f 2/2/9 45/45/10 46/46/11 
f 41/41/9 47/47/11 48/48/11 
f 39/39/9 37/37/9 35/35/9 33/33/9 
f 46/46/11 49/49/11 5/5/9 2/2/9 
f 27/27/10 50/50/11 51/51/12 
f 23/23/9 21/21/9 19/19/10 25/25/9 
f 13/13/9 11/11/9 9/9/9 7/7/12 
f 10/10/13 12/12/13 14/14/13 8/8/13 
f 36/36/13 38/38/13 40/40/13 34/34/13 
f 52/52/13 3/3/13 53/53/13 
f 20/20/13 26/26/13 28/28/13 54/54/13 
f 55/55/13 54/54/13 28/28/13 56/56/13 
f 20/20/13 22/22/13 24/24/13 26/26/13 
s 1
f 57/57/14 58/58/14 59/59/14 60/60/14 
s 4
f 61/61/15 62/62/15 63/63/15 54/54/16 
f 59/59/17 64/64/17 65/65/17 60/60/17 
s 2
f 63/63/18 66/66/18 67/67/18 54/54/18 
s 16
f 65/65/10 66/66/10 68/68/9 69/69/10 
f 63/63/10 62/62/11 70/70/11 19/19/10 
f 8/8/13 14/14/13 64/64/13 59/59/13 
f 8/8/13 59/59/13 32/32/13 
f 71/71/13 32/32/13 59/59/13 58/58/13 
s 2
f 65/65/18 64/64/18 67/67/18 66/66/18 
s 16
f 15/15/10 72/72/11 73/73/9 
f 54/54/13 67/67/13 74/74/13 75/75/13 
s 1
f 69/69/1 68/68/1 76/76/1 74/74/1 
f 76/76/1 75/75/1 74/74/1 
f 69/69/1 74/74/1 77/77/1 
s 2
f 73/73/6 78/78/6 79/79/6 80/80/6 
s 4
f 81/81/3 78/78/3 73/73/3 72/72/3 
f 72/72/3 69/69/3 77/77/3 81/81/3 
f 80/80/19 79/79/19 75/75/19 76/76/19 
s 16
f 69/69/10 15/15/10 65/65/10 
f 69/69/10 72/72/11 15/15/10 
f 76/76/11 68/68/9 66/66/10 63/63/10 
f 73/73/9 80/80/10 19/19/10 17/17/9 
f 73/73/9 17/17/9 15/15/10 
f 76/76/11 63/63/10 19/19/10 80/80/10 
f 74/74/13 67/67/13 64/64/13 77/77/13 
f 77/77/13 64/64/13 14/14/13 
f 20/20/13 54/54/13 75/75/13 79/79/13 
f 78/78/13 16/16/13 18/18/13 20/20/13 
f 78/78/13 20/20/13 79/79/13 
f 78/78/13 81/81/13 16/16/13 
s 1
f 50/50/20 70/70/20 55/55/20 56/56/20 
f 56/56/20 82/82/20 51/51/20 50/50/20 
s 2
f 70/70/21 62/62/21 61/61/21 55/55/21 
f 83/83/22 71/71/23 58/58/22 57/57/22 
s 4
f 82/82/24 71/71/24 83/83/24 51/51/24 
s 16
f 60/60/11 31/31/11 83/83/12 57/57/12 
f 51/51/12 83/83/12 31/31/11 29/29/12 
f 51/51/12 29/29/12 27/27/10 
f 55/55/13 61/61/13 54/54/13 
f 70/70/11 50/50/11 27/27/10 19/19/10 
f 27/27/10 25/25/9 19/19/10 
f 82/82/13 56/56/13 28/28/13 
f 82/82/13 28/28/13 30/30/13 32/32/13 
f 71/71/13 82/82/13 32/32/13 
f 4/4/13 3/3/13 52/52/13 84/84/13 
f 4/4/13 84/84/13 44/44/13 
f 32/32/13 34/34/13 40/40/13 85/85/13 
f 86/86/13 32/32/13 85/85/13 
f 47/47/11 41/41/9 39/39/9 87/87/10 
f 40/40/13 42/42/13 88/88/13 85/85/13 
s 8
f 84/84/1 89/89/1 48/48/1 90/90/1 
s 64
f 87/87/2 91/91/2 86/86/2 85/85/2 
f 87/87/2 85/85/2 88/88/2 47/47/2 
f 47/47/2 88/88/2 90/90/2 48/48/2 
s 32
f 86/86/6 91/91/6 49/49/6 92/92/6 
s 1
f 45/45/3 89/89/3 84/84/3 52/52/3 
f 46/46/3 45/45/3 52/52/3 53/53/3 
f 49/49/3 46/46/3 53/53/3 92/92/3 
s 16
f 48/48/11 89/89/10 43/43/10 41/41/9 
f 45/45/10 2/2/9 1/1/9 89/89/10 
f 89/89/10 1/1/9 43/43/10 
f 49/49/11 91/91/10 7/7/12 5/5/9 
f 91/91/10 87/87/10 39/39/9 31/31/11 
f 39/39/9 33/33/9 31/31/11 
f 91/91/10 31/31/11 7/7/12 
f 90/90/13 42/42/13 44/44/13 84/84/13 
f 90/90/13 88/88/13 42/42/13 
f 86/86/13 8/8/13 32/32/13 
f 92/92/13 6/6/13 8/8/13 86/86/13 
f 92/92/13 53/53/13 3/3/13 6/6/13 
f 93/93/13 94/94/13 95/95/13 16/16/13 
f 93/93/13 16/16/13 81/81/13 77/77/13 
f 96/96/13 93/93/13 77/77/13 14/14/13 
f 95/95/13 96/96/13 14/14/13 16/16/13 
f 97/97/9 98/98/10 99/99/10 15/15/10 
f 97/97/9 15/15/10 13/13/9 100/100/9 
f 100/100/9 13/13/9 7/7/12 31/31/11 
f 31/31/11 60/60/11 65/65/10 100/100/9 
f 99/99/10 100/100/9 65/65/10 15/15/10 
s 8
f 99/99/1 93/93/1 96/96/1 100/100/1 
s 64
f 98/98/2 94/94/2 93/93/2 99/99/2 
s 32
f 94/94/25 98/98/25 97/97/25 95/95/25 
s 1
f 100/100/3 96/96/3 95/95/3 97/97/3 
# 93 polygons - 26 triangles

